<?xml version="1.0" encoding="UTF-8"?>
<svg width="22px" height="21px" viewBox="0 0 22 21" version="1.1" xmlns="http://www.w3.org/2000/svg" xmlns:xlink="http://www.w3.org/1999/xlink">
    <title>8CA3A3C3-9F9E-41A8-8C8E-66F785414C29</title>
    <g id="Page-1" stroke="none" stroke-width="1" fill="none" fill-rule="evenodd">
        <g id="01" transform="translate(-15.000000, -35.000000)" fill="#F3E1DD">
            <g id="Title-Bar" transform="translate(0.000000, 23.000000)">
                <g id="logo-simpleapps" transform="translate(26.000000, 22.500000) scale(-1, 1) rotate(-90.000000) translate(-26.000000, -22.500000) translate(16.000000, 12.000000)">
                    <path d="M11.3943155,14.5315838 L11.3943155,15.8387546 C11.3943155,18.1489321 9.52154657,20.021701 7.21136903,20.021701 L0.0655021834,20.021701 L0.0655021834,18.7145302 C0.0655021834,16.4043527 1.9382711,14.5315838 4.24844863,14.5315838 L11.3943155,14.5315838 Z M16.1001302,7.29863033 L16.1001302,8.60580109 C16.1001302,10.9159786 14.2273613,12.7887475 11.9171838,12.7887475 L0.0655021834,12.7887475 L0.0655021834,11.4815768 C0.0655021834,9.17139924 1.9382711,7.29863033 4.24844863,7.29863033 L16.1001302,7.29863033 Z M19.9344978,0.0656768559 L19.9344978,1.37284762 C19.9344978,3.68302515 18.0617289,5.55579407 15.7515514,5.55579407 L0.0655021834,5.55579407 L0.0655021834,4.2486233 C0.0655021834,1.93844577 1.9382711,0.0656768559 4.24844863,0.0656768559 L19.9344978,0.0656768559 Z" id="logo-app"></path>
                </g>
            </g>
        </g>
    </g>
</svg>